HIERARCHY
ROOT Hips
{
	OFFSET -0.001795 -0.223333 0.028219
	CHANNELS 6 Xposition Yposition Zposition Zrotation Yrotation Xrotation 
	JOINT LeftUpLeg
	{
		OFFSET 0.069520 -0.091406 -0.006815
		CHANNELS 3 Zrotation Yrotation Xrotation
		JOINT LeftLeg
		{
			OFFSET 0.034277 -0.375199 -0.004496
			CHANNELS 3 Zrotation Yrotation Xrotation
			JOINT LeftFoot
			{
				OFFSET -0.013596 -0.397961 -0.043693
				CHANNELS 3 Zrotation Yrotation Xrotation
				JOINT LeftToe
				{
					OFFSET 0.026358 -0.055791 0.119288
					CHANNELS 3 Zrotation Yrotation Xrotation
					End Site
					{
						OFFSET 0.000000 0.000000 0.000000
					}
				}
			}
		}
	}
	JOINT RightUpLeg
	{
		OFFSET -0.067670 -0.090522 -0.004320
		CHANNELS 3 Zrotation Yrotation Xrotation
		JOINT RightLeg
		{
			OFFSET -0.038290 -0.382569 -0.008850
			CHANNELS 3 Zrotation Yrotation Xrotation
			JOINT RightFoot
			{
				OFFSET 0.015774 -0.398415 -0.042312
				CHANNELS 3 Zrotation Yrotation Xrotation
				JOINT RightToe
				{
					OFFSET -0.025372 -0.048144 0.123348
					CHANNELS 3 Zrotation Yrotation Xrotation
					End Site
					{
						OFFSET 0.000000 0.000000 0.000000
					}
				}
			}
		}
	}
	JOINT Spine
	{
		OFFSET -0.002533 0.108963 -0.026696
		CHANNELS 3 Zrotation Yrotation Xrotation
		JOINT Spine1
		{
			OFFSET 0.005487 0.135180 0.001092
			CHANNELS 3 Zrotation Yrotation Xrotation
			JOINT Spine2
			{
				OFFSET 0.001457 0.052922 0.025425
				CHANNELS 3 Zrotation Yrotation Xrotation
				JOINT Neck
				{
					OFFSET -0.002778 0.213870 -0.042857
					CHANNELS 3 Zrotation Yrotation Xrotation
					JOINT Head
					{
						OFFSET 0.005152 0.064970 0.051349
						CHANNELS 3 Zrotation Yrotation Xrotation
						End Site
						{
							OFFSET 0.000000 0.000000 0.000000
						}
					}
				}
				JOINT LeftShoulder
				{
					OFFSET 0.078845 0.121749 -0.034090
					CHANNELS 3 Zrotation Yrotation Xrotation
					JOINT LeftArm
					{
						OFFSET 0.090977 0.030469 -0.008868
						CHANNELS 3 Zrotation Yrotation Xrotation
						JOINT LeftForeArm
						{
							OFFSET 0.259612 -0.012772 -0.027456
							CHANNELS 3 Zrotation Yrotation Xrotation
							JOINT LeftHand
							{
								OFFSET 0.249234 0.008986 -0.001171
								CHANNELS 3 Zrotation Yrotation Xrotation
								End Site
								{
									OFFSET 0.000000 0.000000 0.000000
								}
							}
						}
					}
				}
				JOINT RightShoulder
				{
					OFFSET -0.081759 0.118833 -0.038615
					CHANNELS 3 Zrotation Yrotation Xrotation
					JOINT RightArm
					{
						OFFSET -0.096012 0.032551 -0.009143
						CHANNELS 3 Zrotation Yrotation Xrotation
						JOINT RightForeArm
						{
							OFFSET -0.253742 -0.013329 -0.021401
							CHANNELS 3 Zrotation Yrotation Xrotation
							JOINT RightHand
							{
								OFFSET -0.255298 0.007772 -0.005559
								CHANNELS 3 Zrotation Yrotation Xrotation
								End Site
								{
									OFFSET 0.000000 0.000000 0.000000
								}
							}
						}
					}
				}
			}
		}
	}
}
MOTION
Frames: 7
Frame Time: 0.050000
0.000000 0.935618 0.000000 -5.099397 -18.439345 2.805569 -3.345178 -0.727286 -5.928059 0.336541 -0.123835 6.017587 1.097420 2.412937 -0.066625 0.000000 0.000000 0.000000 -2.632617 1.716456 -16.573944 13.500433 -1.076705 39.437000 -4.542723 -11.305030 0.067236 0.000000 0.000000 0.000000 0.265060 -0.272320 8.475649 -3.682169 1.750284 -0.462093 2.570123 -2.986167 11.114582 -1.194841 0.443530 -17.816623 0.000000 0.000000 0.000000 -30.431825 -6.917189 7.441072 -44.341238 -17.154716 -1.396502 -0.876013 -25.426980 1.664035 0.000000 0.000000 0.000000 23.075206 10.176373 -0.639112 52.981618 -2.736657 -5.664176 -1.562184 19.308303 -0.004763 0.000000 0.000000 0.000000 
-0.011535 0.937589 0.003029 -5.799935 -12.985541 2.221776 -0.766749 -0.563386 -5.803399 0.273618 -0.180081 7.802847 -1.719276 -4.214418 -1.346182 0.000000 0.000000 0.000000 -3.733278 1.821256 -19.314995 10.852805 -1.086458 38.355363 -3.437587 -9.600096 2.212176 0.000000 0.000000 0.000000 0.992421 -0.393983 9.251210 -1.173488 0.603352 1.113011 0.523893 -3.381289 11.421000 -0.431779 0.336862 -18.944107 0.000000 0.000000 0.000000 -27.761399 -8.595485 7.057202 -46.554107 -17.599996 -0.700236 -0.387863 -26.627633 1.613568 0.000000 0.000000 0.000000 22.263180 10.128923 0.527297 54.449554 1.299193 -4.498016 -0.136057 19.118210 0.331500 0.000000 0.000000 0.000000 
-0.023898 0.939385 0.005537 -5.522367 -7.921799 1.619527 -0.500354 -0.554280 -5.854980 1.208570 -0.508254 11.145802 -2.720238 -7.742372 -3.489773 0.000000 0.000000 0.000000 -4.746843 1.648778 -20.569710 6.554728 -0.279114 33.997097 -1.967335 -5.781528 1.598808 0.000000 0.000000 0.000000 1.813833 -0.550912 10.310695 -2.071075 1.040934 2.022428 2.253490 -2.970748 10.638778 -1.458131 1.292620 -19.117153 0.000000 0.000000 0.000000 -28.533431 -11.251761 7.742853 -46.874083 -17.405379 -0.394008 1.105489 -25.740717 1.085271 0.000000 0.000000 0.000000 19.387501 10.352024 1.889984 57.788695 3.282580 -4.285797 -1.233883 19.749684 0.268296 0.000000 0.000000 0.000000 
-0.037264 0.939116 0.007895 -5.734145 -2.799847 2.731297 1.414758 -0.620385 -7.746358 1.260380 -0.646303 12.248490 -5.040557 -14.603951 -4.801498 0.000000 0.000000 0.000000 -6.049621 1.414512 -22.848167 2.040642 0.638024 28.018928 2.027770 3.477559 2.727941 0.000000 0.000000 0.000000 2.071053 -0.689729 11.266339 -1.217959 0.572885 1.693384 1.967254 -2.052519 10.301396 -1.480328 1.746376 -19.837344 0.000000 0.000000 0.000000 -28.718161 -12.327008 7.024299 -46.620384 -16.511009 -0.289290 -2.333721 -26.620626 1.790408 0.000000 0.000000 0.000000 20.645428 11.622925 3.626211 56.860716 6.733716 -2.672490 -0.993150 19.624897 0.428707 0.000000 0.000000 0.000000 
-0.052858 0.938952 0.009972 -5.281357 2.158535 3.224522 2.512942 -0.733513 -9.732649 1.301324 -0.844268 14.056082 -6.687232 -18.254506 -3.857232 0.000000 0.000000 0.000000 -7.042964 1.011148 -23.811633 -2.385483 1.520017 22.543228 5.772530 11.331091 4.684801 0.000000 0.000000 0.000000 2.743409 -0.941163 12.776656 -2.026787 0.954835 0.137859 1.935078 -0.708994 11.154452 0.255643 1.283776 -21.209442 0.000000 0.000000 0.000000 -28.952162 -13.653815 6.351320 -45.959181 -15.787199 -0.184336 -3.032756 -26.509355 1.804326 0.000000 0.000000 0.000000 24.433769 11.500956 4.997905 53.307849 10.981186 -1.037806 -1.596159 19.367277 0.454579 0.000000 0.000000 0.000000 
-0.070997 0.937673 0.012251 -4.687944 8.353915 3.281142 3.451600 -0.895426 -11.913870 2.029213 -1.324665 16.173663 -9.103178 -23.120067 -2.300149 0.000000 0.000000 0.000000 -8.823162 0.222026 -25.215674 -1.445798 0.847532 21.811342 5.573563 10.279385 5.851834 0.000000 0.000000 0.000000 3.156637 -1.291378 14.875445 -2.030220 0.933922 0.225597 1.886391 0.083357 11.105129 0.975532 1.458358 -22.447728 0.000000 0.000000 0.000000 -30.277781 -15.214692 5.704212 -43.687494 -15.108987 0.088397 -4.718465 -25.257990 1.930647 0.000000 0.000000 0.000000 25.240837 13.758609 8.009698 51.713144 16.142191 0.735714 -3.669086 20.167986 0.249891 0.000000 0.000000 0.000000 
-0.091954 0.935192 0.015456 -3.988637 14.052252 5.187428 4.211486 -1.201502 -15.135236 2.262822 -1.537948 16.280766 -10.663431 -27.305797 -1.923313 0.000000 0.000000 0.000000 -9.753902 -0.564623 -27.741742 -2.423863 0.837991 22.772360 7.170637 13.341475 6.764096 0.000000 0.000000 0.000000 3.432091 -1.413942 14.297927 -1.183887 0.304831 3.107918 1.379600 2.697035 8.358792 1.317830 1.879796 -22.016177 0.000000 0.000000 0.000000 -28.837532 -16.320353 3.977300 -44.719954 -12.878579 0.249618 -5.842924 -25.477573 1.941501 0.000000 0.000000 0.000000 24.386047 15.807321 11.108044 49.670205 20.590140 2.245697 -4.981866 21.304067 0.119000 0.000000 0.000000 0.000000 
